<svg xmlns="http://www.w3.org/2000/svg" width="264.302" height="240.119" fill="none" viewBox="0 0 264.302 240.119"><defs><linearGradient id="a" x1="310.992" x2="273.044" y1="258.835" y2="-91.588" gradientTransform="translate(-3)" gradientUnits="userSpaceOnUse"><stop stop-color="#9ac1a2"/><stop offset="1" stop-color="#9ac1a2" stop-opacity=".44"/></linearGradient><linearGradient id="c" x1="71.091" x2="207.298" y1="10.423" y2="359.692" gradientTransform="translate(-3)" gradientUnits="userSpaceOnUse"><stop offset=".213" stop-color="#3fcffd"/><stop offset=".754" stop-color="#3fcffd" stop-opacity=".34"/></linearGradient><linearGradient id="b" x1="202.656" x2="1.948" y1="118.821" y2="68.296" gradientTransform="translate(-3)" gradientUnits="userSpaceOnUse"><stop offset=".083" stop-color="#86cb95"/><stop offset="1" stop-color="#86cb95" stop-opacity=".53"/></linearGradient><linearGradient id="d" x1="192" x2="269" y1="270" y2="-67" gradientTransform="translate(-3)" gradientUnits="userSpaceOnUse"><stop stop-color="#b1debb"/><stop offset="1" stop-color="#b1debb" stop-opacity=".6"/></linearGradient></defs><g style="display:inline"><path fill="url(#a)" d="M173.367 246 110.176 98.445 148 246Z" style="fill:url(#a)" transform="translate(0 -5.94)"/><path fill="url(#b)" d="M70.586 6 20.71 175.581 0 246h70.586l7.034-26.218 17.84-66.49 14.716-54.847Z" style="fill:url(#b)" transform="translate(0 -5.94)"/></g><path fill="#66d3f4" fill-opacity=".89" d="M134.979 6 0 246 70.586 6Z" style="display:inline" transform="translate(0 -5.94)"/><g style="display:inline"><path fill="#69dafd" fill-opacity=".82" d="M210.399 180.007 0 246l22.63-76.935 162.917-46.398 74.278-21.146Z" style="display:inline;fill:#69dafd;fill-opacity:.94902" transform="translate(0 -5.94)"/></g><g style="display:inline"><path d="m70.586 6 39.59 92.445 19.164 44.744 22.119 51.653L173.367 246H239l-30.521-70.42L186.99 126 134.98 6Z" style="opacity:1;fill:url(#c)" transform="translate(0 -5.94)"/></g><g style="display:inline"><path fill="url(#d)" d="M207.52 5.957 148 246l61.064.058L264.302 5.94Z" style="fill:url(#d)" transform="translate(0 -5.94)"/></g></svg>
